<svg id="Слой_1" data-name="Слой 1" xmlns="http://www.w3.org/2000/svg" viewBox="0 0 388.63 316.35"><defs><style>.cls-1{fill:#4099d5;}.cls-2{fill:#e46aa4;}.cls-3{fill:#252829;}.cls-4{fill:#f8cb2c;}</style></defs><path class="cls-1" d="M281.51,123.89a93.23,93.23,0,0,1-2.32,22.62c2.37.79,3.22-1,4.47-1.83,1-.71,2.1-2.17,3.37-.73,1,1.14-.11,2.33-1,2.88-11.19,6.73-13.39,19.76-20.58,29.28-1.8,1.3-2.76,3.26-3.93,5.06-13.34,14.88-29.64,24.78-49.36,28.42-9.83,1.81-19.83,3.43-29.71-.19,4.88-2.85,8.73-6.91,12.65-10.87,11.26.12,22.2-1.72,32.34-6.66,24.39-11.9,38.08-31.62,41.85-58.37Z"/><path class="cls-2" d="M116.31,97.08c.55-1.56,1.11-3.12,1.63-4.69s1.77-2.83,1.55-4.59c-.82-.86-1.53-.21-2.24.1-1,.41-2,.77-2.73-.18-1-1.37.39-2.18,1.21-2.79,9.27-6.81,16.47-15.85,25.1-23.34C155.64,48.75,173,42.16,192.54,41.1l7,.26-16.81,12c-3.72,1.27-7.46,2.53-11.18,3.83-15.57,5.47-27.13,16.06-37,28.89C127.77,88.58,122.75,94,116.31,97.08Z"/><path class="cls-1" d="M146.08,194.54c-2.44-1.85-4.35-1.19-6.43.88-3.27,3.26-6.81,6.26-10.32,9.28-1.15,1-2.53,3-4.12,1.32s.5-2.82,1.66-3.86c3.57-3.2,7.14-6.39,10.76-9.53,1.53-1.34,2.52-2.32.5-4.31-4-3.94-7.64-8.19-11.43-12.31-3.7-7.57-3.7-7.58-9.78-1.84-.6.56-1.13,1.2-1.7,1.8-1.73,0-3.06-.37-2.06-2.55a2.53,2.53,0,0,1,1-1.08c6.87-3.88,6.72-9.17,3.11-15.18q5-3.66,10.07-7.3a82.26,82.26,0,0,0,27.82,36.25Z"/><path class="cls-3" d="M49.85,262.09c-3.84-7.81-4.47-8.11-14.23-6.81-.76-.11-.83.27-.61.86l0,12.91c.19,3.12-1.74,3.34-4.09,3l-.54-37.86c.32-1.17,1.4-1.16,2.28-1.44l17.89.46,1,.4c9.8,5.4,10.35,13.75,1,19.31C49.87,254.5,51,255.52,52,257c3.15,4.79,6.31,9.56,9.55,14.48-6.68,2.36-6.64-4-9.54-6.2Zm-8.51-11.26c3.5.12,6.51.25,9.32-1.09a6.25,6.25,0,0,0,4-5.84c0-2.52-.78-4.71-3.17-5.75C46.53,236,41.3,237,36.19,237c-.38,0-1.11.49-1.12.76-.1,4-.85,8.14.1,11.86C35.89,252.42,39.59,250.18,41.34,250.83Z"/><path class="cls-3" d="M332.5,232.75c4.48.06,9,.07,13.44.19,6.29.18,10.88,3,12.28,7.55,1.57,5-.06,8.77-6.23,12.54-2.42,1.48-1.3,2.48-.4,3.85,3.15,4.82,6.32,9.64,9.52,14.51-5.32,2.52-6.1-2.14-8.32-4.35a13,13,0,0,0-3.24-4.9c-3.8-7.86-4.18-8-14.07-6.92-.76-.1-.9.3-.72.93q0,6.5,0,13c.1,3-1.9,3.13-4.1,3l-.54-37.9C330.42,232.91,331.55,233,332.5,232.75Zm9.42,4v.12c-1.67,0-3.33,0-5,0s-2.44.55-2.4,2.3c.08,3.16,0,6.32,0,9.48,0,1.06.18,2.15,1.49,2.13,4.79-.06,9.69,1,14.29-1a6.19,6.19,0,0,0,4-6.8,6.1,6.1,0,0,0-5.44-5.66A64,64,0,0,0,341.92,236.75Z"/><path class="cls-3" d="M308.53,246.63c0-3.66.07-7.32,0-11-.05-1.8.3-2.81,2.39-2.76s2,1.26,2,2.66c-.05,7.48.23,15-.18,22.44-.51,9.23-6.39,14.59-15.51,14.86-8.75.26-15.14-4.73-16-13.7-.76-7.91-.32-15.94-.49-23.91,0-1.78.71-2.31,2.33-2.34,1.82,0,2.18.93,2.17,2.51-.06,7-.19,14,0,21,.21,8.22,4.93,12.87,12.27,12.51,6.34-.31,10.55-4.5,11-11.28.23-3.64,0-7.31,0-11Z"/><path class="cls-3" d="M127.56,266.4A18.46,18.46,0,0,0,142.47,268a6.72,6.72,0,0,0,5.11-6.61,6.35,6.35,0,0,0-4.7-6.84c-3.16-1-6.46-1.53-9.67-2.35-5.41-1.38-8.3-4.85-8.26-9.82s3-8.32,8.39-9.7c4.74-1.22,9.24-.29,13.66,1.4,1.2.46,2.58.89,1.75,2.8-.74,1.69-1.77,1.69-3.18.94-3-1.62-6.35-1.83-9.71-1.64-3.57.2-6.21,1.8-6.67,5.48s1.84,5.53,5.06,6.38c3.05.8,6.19,1.29,9.22,2.17,5.84,1.7,8.52,5.52,8.3,11.44-.2,5.18-3.64,9.2-9.06,10.49-6.59,1.57-12.86.45-18.91-2.35C124.63,268.15,124.09,265,127.56,266.4Z"/><path class="cls-3" d="M108,258.13c-2.55,11.68-9.25,16.36-20.27,14.14-7.2-1.46-11.45-6.55-11.86-15.12-.35-7.13,0-14.28-.13-21.43,0-1.76.25-2.84,2.36-2.82,2.32,0,2.12,1.51,2.12,3,0,7-.17,14,.08,20.94.26,7.52,4.52,11.87,11.23,12,7,.15,11.76-4.33,12-11.79.21-7-.05-14-.1-20.92-.08-3.21,1.71-3.76,4.37-3.08l.35,24.15A.64.64,0,0,0,108,258.13Z"/><path class="cls-3" d="M168,238.82c.18-.49.36-1,.53-1.47l2.43-2.7-.25-.39.28.37,5.51-2.53,2-.2,8,.85c1.08.44,2.17.85,3.24,1.3,1.3.56,2.44,1.17,1.56,2.95s-2,1.35-3.27.67a17.67,17.67,0,0,0-10.22-1.49c-3.28.37-5.72,2.08-6.05,5.57-.32,3.32,1.79,5.22,4.75,6.13,2.06.62,4.2,1,6.31,1.43,9.43,2.14,11.87,5.25,11.61,14.83-2.89,7.22-9.25,8.33-15.87,9-3.14-1-6.6-.73-9.62-2.3-1.3-.68-2.81-1-1.93-3.2s2-1.38,3.48-.81c4.37,1.7,8.81,2.71,13.58,1.5,3.68-.94,5.93-3.05,6.19-6.78s-1.86-6.25-5.47-7.29a69.85,69.85,0,0,0-7.72-1.83c-5.85-1-9.16-4.23-9.66-10.2C167.62,241.06,167.82,239.94,168,238.82Z"/><path class="cls-1" d="M245.72,57A76.66,76.66,0,0,1,269.8,83.31l-9,7.51a87,87,0,0,0-23.86-26.51Z"/><path class="cls-4" d="M116.31,97.08c6.44-3.07,11.46-8.5,18.23-11,.12,1.81-1.16,3-1.93,4.46a73.19,73.19,0,0,0-8.26,24.8c-4.6,3.13-8.47,7.23-13.47,9.8C111.33,115.5,112.43,106,116.31,97.08Z"/><path class="cls-2" d="M260.79,90.82l9-7.51.34.07c.86,2.44,1.73,4.88,3.54,6.83,1.92,5.16,2,5.17,6,1.66.62-.55,1.23-1.11,1.86-1.64,1-.83,2.07-1.18,3,0,.82,1,.09,1.82-.64,2.54a3,3,0,0,1-.72.67c-5.42,2.85-6.42,7.28-4.6,12.73L269,114.39A97.83,97.83,0,0,0,260.79,90.82Z"/><path class="cls-2" d="M146.08,194.54l9-8.43c4.24,1.88,7.8,5.11,12.42,6.23.73,1,1.84,1,2.91,1.15l8.29,3.15-11,9.65C160.06,203.19,152.46,200,146.08,194.54Z"/><path class="cls-2" d="M127.31,149.86q-5,3.64-10.07,7.3c-1.1-3.43-2.79-3-4.9-.84-.84.84-2.09,1.34-3.08.2a1.59,1.59,0,0,1,.62-2.53c5.75-2.59,4-7,3-11.33-.61-2.57-.83-5.23-1.22-7.85,4.54-1.25,7.51-5.26,11.88-6.8C123.81,135.46,125.66,142.64,127.31,149.86Z"/><path class="cls-3" d="M259.54,232.75c.66.06,1.32.09,2,.19,1.45.23,3.71-.83,3.58,2-.13,2.67-2.29,1.85-3.78,1.9-8.15.27-8.15.25-8.15,8.44,0,7.48.06,15,0,22.44,0,1.69,1.15,4.43-2.33,4.32-3.07-.1-2-2.57-2-4.13-.09-9-.17-18,0-26.92.07-3.14-.59-4.19-4-4.28-2.62-.08-7.65,2.48-7.63-2.08,0-3.52,4.93-.88,7.51-1.72a7.71,7.71,0,0,1,1-.18Z"/><path class="cls-4" d="M182.68,53.33l16.81-12,3.07-.24c6.4,2,11.89.75,16.43-4.38.92-1,2.49-2.42,3.75-.72s-.82,2.47-1.8,3.41c-1.3,1.24-3.05,2-3.9,3.72l-12.65,9.94C197.14,51.77,189.92,53.59,182.68,53.33Z"/><path class="cls-4" d="M269,114.39l9.61-8.22c.49,1.92,1,3.82,1.44,5.75.7,3.2-.42,9,5.82,3.87.74-.61,1.6-.26,2.08.58s0,1.59-.58,2.2c-1.79,1.93-4.44,2.94-5.81,5.32l-12.25,9.61A119.54,119.54,0,0,0,269,114.39Z"/><path class="cls-1" d="M204.39,53.09,217,43.15c6.76,2.45,13.69,4.5,19.93,8.21l-10.72,7.32C219.09,56.3,212,53.74,204.39,53.09Z"/><path class="cls-4" d="M167.71,206.29l11-9.65c5.41.91,10.8,2,16.34,1.89-3.93,4-7.78,8-12.66,10.87-1.48-.1-3.13.18-4.41-.37-4.67-2-8.19-.65-11.32,3-1,1.14-2.49,3.18-4,1.54-2-2.09.94-2.92,1.93-4.15A40.31,40.31,0,0,1,167.71,206.29Z"/><path class="cls-2" d="M226.25,58.68,237,51.36c6.62,5.48,9.54-1.87,13.61-4.28,2.29-1.35,4.12-3.13,7-2.9-2.56,4.15-7.08,6.33-10.07,10-1.16.55-2.27,1.13-1.76,2.75l-8.78,7.33Z"/><path class="cls-1" d="M123.51,128c-4.37,1.54-7.34,5.55-11.88,6.8-.38-3.23-1.21-6.41-.75-9.7,5-2.57,8.87-6.67,13.47-9.8Z"/><path class="cls-1" d="M204.63,121c.25-3.59,3.54-7.8-2.72-9.9-2.08-.7,1.46-2.16.7-3.56a26.26,26.26,0,0,0-14.31.08c.53,1,1.06,2,1.57,3.07,3,5.91,2.65,7.72-3.23,10.77-4.93,2.57-8.08,7.3-12.93,9.86-.27.15-.7.41-.7.62,0,3,3.44,4.29,3.77,7.35.16,1.52,1.89.82,2.93.38,6.9-2.94,11.8,1.51,16.87,4.77,2.41,1.55,1,4.09-.19,5.76-3.55,4.77-8.07,8.92-9.12,15.2a1.13,1.13,0,0,1-1.43,1,2.13,2.13,0,0,1-1.21-1.39c-.49-6.19-4.5-10.2-8.64-14.11a8,8,0,0,1-2.24-4.91c-.78-5.17-4.66-8.75-6.63-13.3-.33-.75-1.13-1.53-2-1-.58.36-.86,1.33-1.1,2.08-1.22,3.79.39,7.89-1.1,11.95-3-6.44-1.69-16.5,2.92-24.07,13.37-22,43.27-24.15,58.13-3.24,14.12,19.87,6.79,45-17.22,53.59l-3.26,1.15-11,.17c-13.64-1.84-23.24-9.09-28.8-21.64-.57-1.29-2.54-3.23-.22-4.2,2-.83,1.94,1.75,2.48,3,9.44,21.21,33.08,27.33,51.29,12.92,7.79-6.16,11.55-14.56,11.24-26-4.95,4.73-6.25,10.57-10.58,14.59-2.23-2.17-2.45-5.22-3.33-7.89-1.34-4-3.45-6.78-8.09-6.69-3.43.07-4.51-2.25-5-5.09-.2-2.57,1.8-4.08,2.89-6l.13-.11.85-.86.12-.12c1.35-.55,3-1.41,2.71-2.86C207.92,120.4,205.72,121.87,204.63,121Z"/><path class="cls-1" d="M183.72,87.22c.12-1.83,1.06-2.8,2.35-1.11a5.06,5.06,0,0,0,6.64,1.63c2.11-1.08.57-3.55.3-5.44-.2-1.38-1.17-3.15.75-3.92s2.88.93,3.78,2.37c2.29,3.67,3.63,8.52,9.63,7.61a1.74,1.74,0,0,1,1.89,1.88,1.77,1.77,0,0,1-1.91,1.88c-6.12-1-7.92,3.5-10,7.66-.68,1.35-1.42,3-3.28,2.25s-.82-2.48-.63-3.86c.26-1.87,1.82-4.57.15-5.43-2.13-1.1-5.21-1.28-7.09,1.54-.62.94-1.68,1-2.69,1,.17-1.29.35-2.57.53-3.85l.15-1A2.39,2.39,0,0,0,183.72,87.22Z"/><path class="cls-1" d="M235.87,103.71a5.15,5.15,0,0,0,2.48,2.58c.15,1.19,2.62,2.27,1,3.2-2,1.15-2.92-1.43-4.18-2.52C233.72,105.7,233,104.25,235.87,103.71Z"/><path class="cls-1" d="M230.32,99.79c-.34,1.12-1.13,1.41-1.95,1-1.55-.82-3.73-.89-4.38-2.87-.3-.91.61-1.59,1.55-1.2C227.31,97.44,229.36,97.85,230.32,99.79Z"/><path class="cls-1" d="M169,96.63c-.1,4.28-3.56,3.69-6.21,4.28C163.26,97.2,166.28,97.14,169,96.63Z"/><path class="cls-1" d="M157.55,104c2.2.6,1.52,1.79.62,3a12.18,12.18,0,0,1-1.15.89c-1.07.65-1.87,3.08-3.33,1.44s1.05-2.27,1.8-3.32A15.82,15.82,0,0,1,157.55,104Z"/><path class="cls-1" d="M214.85,91.49c1.54.62,3.53.62,4.13,2.4.28.84-.87,1.45-1.71,1.07-1.51-.71-4-.07-4.27-2.51C212.86,91.37,214.09,91.54,214.85,91.49Z"/><path class="cls-1" d="M180.16,91.48c-1.21,3.65-3.82,4.38-6.49,1.83C175.76,92.45,177.75,91.24,180.16,91.48Z"/></svg>